<svg width="24" height="24" viewBox="0 0 24 24" xmlns="http://www.w3.org/2000/svg" xmlns:xlink="http://www.w3.org/1999/xlink">
    <defs>
        <path d="M16.635 4.51c3.24 3.241 3.335 8.424.303 11.79l.3-.3L22 20.765 20.764 22l-4.763-4.763.3-.3c-3.366 3.033-8.55 2.939-11.79-.302A8.573 8.573 0 0 1 16.635 4.51zM5.723 5.724a6.858 6.858 0 1 0 9.698 9.699 6.858 6.858 0 0 0-9.698-9.7zm4.848-.58a5.574 5.574 0 0 1 5.573 5.475l.001.098h-.857A4.717 4.717 0 0 0 10.662 6h-.091v-.858z" id="8d2njemffa"/>
    </defs>
    <g fill="none" fill-rule="evenodd">
        <path d="M0 0h24v24H0z"/>
        <use fill="#917BFF" xlink:href="#8d2njemffa"/>
    </g>
</svg>
