<svg width="84" height="25" viewBox="0 0 84 25" fill="none" xmlns="http://www.w3.org/2000/svg">
<path fill-rule="evenodd" clip-rule="evenodd" d="M18.1685 18.7514V0L14.7051 0.371841V6.69315C14.3499 6.39217 13.8793 6.13985 13.2932 5.93619C12.7071 5.73255 12.0587 5.63074 11.3484 5.63074C9.78539 5.63074 8.53773 6.17076 7.60529 7.25091C6.67285 8.33106 6.20663 10.022 6.20663 12.3239C6.20663 14.6258 6.71282 16.3167 7.72518 17.3969C8.73754 18.477 10.1672 19.017 12.0144 19.017C13.2754 19.017 14.3144 18.6364 15.1314 17.875L15.531 18.7514H18.1685ZM14.7051 15.5642C14.048 16.06 13.2842 16.3079 12.414 16.3079C11.5082 16.3079 10.8244 16.0069 10.3626 15.4049C9.9008 14.8028 9.66998 13.7759 9.66998 12.3239C9.66998 10.8896 9.90527 9.86708 10.376 9.2562C10.8466 8.64532 11.5349 8.33988 12.4407 8.33988C13.2754 8.33988 14.0302 8.59666 14.7051 9.11012V15.5642Z" fill="#717171"/>
<path fill-rule="evenodd" clip-rule="evenodd" d="M21.3137 7.22435C20.2837 8.28676 19.7686 9.9866 19.7686 12.3239C19.7686 14.6612 20.2837 16.361 21.3137 17.4234C22.3439 18.4858 23.9512 19.017 26.1358 19.017C28.2849 19.017 29.8788 18.477 30.9179 17.3969C31.9569 16.3168 32.4764 14.6258 32.4764 12.3239C32.4764 10.0221 31.9569 8.33106 30.9179 7.25091C29.8788 6.17087 28.2849 5.6308 26.1358 5.6308C23.9512 5.6308 22.3439 6.16195 21.3137 7.22435ZM23.8713 15.2455C23.445 14.5727 23.2319 13.5988 23.2319 12.3239C23.2319 11.049 23.445 10.0752 23.8713 9.40228C24.2975 8.72946 25.0524 8.393 26.1358 8.393C27.2192 8.393 27.9696 8.72946 28.3869 9.40228C28.8044 10.0752 29.013 11.049 29.013 12.3239C29.013 13.5988 28.8044 14.5727 28.3869 15.2455C27.9696 15.9184 27.2192 16.2548 26.1358 16.2548C25.0524 16.2548 24.2975 15.9184 23.8713 15.2455Z" fill="#717171"/>
<path d="M37.8012 0V14.9268C37.8012 15.4402 37.89 15.7722 38.0676 15.9228C38.2453 16.0733 38.5916 16.1486 39.1066 16.1486V18.9374C38.9113 18.9727 38.7425 18.9949 38.6005 19.0038C38.4584 19.0126 38.263 19.017 38.0144 19.017C36.7889 19.017 35.8697 18.6939 35.257 18.0476C34.6443 17.4013 34.3379 16.361 34.3379 14.9268V0.371841L37.8012 0Z" fill="#717171"/>
<path fill-rule="evenodd" clip-rule="evenodd" d="M43.2901 6.77283L42.8905 5.8964H40.2531V24.2759H43.7164V17.9546C44.0716 18.2557 44.5423 18.508 45.1284 18.7116C45.7145 18.9153 46.3627 19.017 47.0732 19.017C48.636 19.017 49.8838 18.477 50.8162 17.3969C51.7487 16.3168 52.2149 14.6258 52.2149 12.3239C52.2149 10.0221 51.7042 8.33106 50.683 7.25091C49.6617 6.17087 48.2364 5.6308 46.4071 5.6308C45.1461 5.6308 44.1071 6.01151 43.2901 6.77283ZM43.7164 9.08356C44.3735 8.58784 45.1372 8.33988 46.0075 8.33988C46.9133 8.33988 47.597 8.64096 48.0589 9.24292C48.5206 9.84498 48.7516 10.872 48.7516 12.3239C48.7516 13.7581 48.5162 14.7807 48.0456 15.3916C47.5749 16.0025 46.8867 16.3079 45.9809 16.3079C45.1461 16.3079 44.3913 16.0512 43.7164 15.5377V9.08356Z" fill="#717171"/>
<path d="M57.5448 0V14.9268C57.5448 15.4402 57.6336 15.7722 57.8112 15.9228C57.9888 16.0733 58.3351 16.1486 58.8502 16.1486V18.9374C58.6548 18.9727 58.4862 18.9949 58.344 19.0038C58.2019 19.0126 58.0066 19.017 57.7579 19.017C56.5324 19.017 55.6133 18.6939 55.0005 18.0476C54.3878 17.4013 54.0814 16.361 54.0814 14.9268V0.371841L57.5448 0Z" fill="#717171"/>
<path d="M68.3619 17.689C67.8469 18.0963 67.2563 18.4239 66.5903 18.6717C65.9243 18.9197 65.1916 19.0436 64.3924 19.0436C61.4619 19.0436 59.9966 17.5208 59.9966 14.4752V5.89636H63.46V13.8643C63.46 14.7674 63.5976 15.396 63.8729 15.7501C64.1482 16.1043 64.5967 16.2813 65.2183 16.2813C65.7334 16.2813 66.2085 16.2149 66.6436 16.0821C67.0788 15.9493 67.5272 15.759 67.9889 15.5111V5.89636H71.4523V18.7514H68.8681L68.3619 17.689Z" fill="#717171"/>
<path d="M76.9401 9.34916C76.9401 9.544 77.0158 9.72993 77.1671 9.90692C77.3174 10.084 77.5976 10.2611 78.0058 10.4381C78.4683 10.633 78.9521 10.7967 79.4583 10.9295C79.9644 11.0623 80.4749 11.2261 80.9896 11.4208C81.9487 11.7751 82.6903 12.2309 83.2146 12.7887C83.7379 13.3465 84 14.13 84 15.1393C84 16.4141 83.5567 17.3792 82.668 18.0343C81.7803 18.6895 80.3502 19.017 78.3788 19.017C77.3664 19.017 76.4254 18.9153 75.5548 18.7116C74.6852 18.508 73.8498 18.2114 73.0505 17.8218L74.1961 15.2189C74.8003 15.5554 75.4482 15.8122 76.1409 15.9892C76.8336 16.1663 77.5795 16.2548 78.3788 16.2548C79.178 16.2548 79.7375 16.1663 80.0571 15.9892C80.3768 15.8122 80.5367 15.5466 80.5367 15.1924C80.5367 14.6789 80.0401 14.2362 79.0448 13.8644C78.6185 13.7228 78.1837 13.5988 77.7394 13.4925C77.2961 13.3863 76.8251 13.2359 76.3274 13.041C75.4216 12.7047 74.7204 12.2841 74.2228 11.7794C73.7262 11.2748 73.4768 10.5444 73.4768 9.5882C73.4768 8.31332 73.9212 7.33505 74.8089 6.65331C75.6976 5.97165 77.1096 5.6308 79.0448 5.6308C80.0039 5.6308 80.8745 5.74146 81.6556 5.9628C82.4378 6.18415 83.139 6.47185 83.7603 6.82595L82.6147 9.40228C81.4787 8.72946 80.3768 8.393 79.3112 8.393C78.4587 8.393 77.8502 8.47714 77.4868 8.64532C77.1224 8.8136 76.9401 9.04818 76.9401 9.34916Z" fill="#717171"/>
<path fill-rule="evenodd" clip-rule="evenodd" d="M3.46334 0.371948H0V3.45292H3.46334V0.371948ZM3.46334 5.89645H0V18.7515H3.46334V5.89645Z" fill="#717171"/>
</svg>
